<svg width="549" height="399" viewBox="0 0 549 399" fill="none" xmlns="http://www.w3.org/2000/svg">
<g opacity="0.07">
<path d="M491.387 -117.35C431.929 -204.094 332.11 -261.001 219 -261.001C36.746 -261.001 -111 -113.255 -111 68.9993C-111 95.5144 -107.873 121.299 -101.967 146.005L66.0818 -22.0439C82.191 -38.1531 108.309 -38.1531 124.418 -22.0439L260.25 113.788L491.387 -117.35Z" fill="#8794BA"/>
<path d="M530.609 -39.8988L289.418 201.292C273.309 217.402 247.191 217.402 231.082 201.292L95.25 65.4606L-69.186 229.897C-12.7343 330.792 95.1675 398.999 219 398.999C401.254 398.999 549 251.253 549 68.9993C549 30.8407 542.523 -5.80507 530.609 -39.8988Z" fill="#8794BA"/>
</g>
</svg>
